# xmcd
#
# Track frame offsets: 
#        150
#        23403
#        41031
#        59489
#        78925
#        97458
#        118964
#        133609
#        156216
#        171937
#        190265
#        219113
#        233814
#        252661
#
# Disc length: 3775 seconds
#
# Revision: 0
# Processed by: cddbd v1.5.2PL0 Copyright (c) Steve Scherf et al.
# Submitted via: ExactAudioCopy v0.99pb4
#
DISCID=c60ebd0e
DTITLE=Trailer Park Rangers - Everyone's a Winner
DYEAR=2002
DGENRE=
TTITLE0=Everyone's A Winner In This Town
TTITLE1=The World's Loneliest Circus
TTITLE2=Front Row Souvenirs
TTITLE3=Aurellio Goncalves
TTITLE4=Shanghai Cowboy
TTITLE5=New York Fascination
TTITLE6=Ghost Train
TTITLE7=Trip To The Moon
TTITLE8=Night Rider
TTITLE9=The Nightwatchman
TTITLE10=Balled Of Harry Black
TTITLE11=Eleanor Darby
TTITLE12=Repo Man
TTITLE13=Rosalee
EXTD=
EXTT0=
EXTT1=
EXTT2=
EXTT3=
EXTT4=
EXTT5=
EXTT6=
EXTT7=
EXTT8=
EXTT9=
EXTT10=
EXTT11=
EXTT12=
EXTT13=
PLAYORDER=
